<?xml version="1.0" standalone="no"?>
<!DOCTYPE svg PUBLIC "-//W3C//DTD SVG 20010904//EN"
 "http://www.w3.org/TR/2001/REC-SVG-20010904/DTD/svg10.dtd">
<svg version="1.0" xmlns="http://www.w3.org/2000/svg"
 width="1029.000000pt" height="1280.000000pt" viewBox="0 0 1029.000000 1280.000000"
 preserveAspectRatio="xMidYMid meet">
<metadata>
Created by potrace 1.15, written by Peter Selinger 2001-2017
</metadata>
<g transform="translate(0.000000,1280.000000) scale(0.100000,-0.100000)"
fill="#607d8b" stroke="none">
<path d="M1760 11773 c-140 -11 -230 -35 -230 -63 0 -6 15 -10 34 -10 18 0 47
-7 62 -15 16 -8 39 -15 52 -15 13 0 21 -4 18 -9 -11 -17 278 -74 509 -101 156
-18 631 -97 720 -121 44 -11 99 -29 122 -39 22 -10 67 -26 100 -35 32 -9 63
-22 68 -28 14 -17 59 -45 135 -85 69 -36 144 -108 186 -179 45 -77 120 -330
144 -488 13 -82 11 -310 -2 -365 -6 -25 -10 -78 -9 -118 1 -40 -3 -89 -8 -110
-6 -20 -15 -80 -22 -132 -6 -52 -14 -99 -19 -105 -12 -15 -21 -89 -25 -205 -3
-89 -9 -122 -40 -215 -21 -60 -39 -135 -41 -165 -8 -131 -12 -168 -20 -210 -4
-25 -7 -48 -6 -53 1 -4 6 -137 11 -295 10 -309 15 -346 96 -692 18 -80 38
-172 44 -205 24 -133 43 -194 87 -280 26 -49 72 -139 102 -200 60 -120 124
-224 181 -295 21 -25 70 -100 111 -168 40 -68 78 -126 84 -130 7 -4 29 -32 49
-62 77 -113 114 -159 202 -248 50 -50 99 -104 110 -119 11 -15 56 -64 99 -108
44 -44 90 -96 103 -115 14 -19 76 -88 139 -154 63 -66 113 -124 111 -130 -5
-16 -116 -19 -160 -5 -29 9 -40 10 -49 1 -7 -7 -26 -12 -42 -12 -17 0 -42 -9
-56 -20 -19 -15 -41 -20 -88 -20 -59 0 -67 -3 -98 -34 -24 -24 -34 -43 -34
-64 0 -33 -14 -42 -66 -42 -33 0 -45 -12 -24 -25 16 -10 11 -21 -15 -33 -46
-21 -112 -92 -134 -142 -19 -44 -30 -55 -96 -93 -96 -54 -211 -122 -300 -177
-61 -38 -80 -44 -152 -51 -73 -8 -96 -15 -186 -63 -75 -39 -117 -55 -159 -60
-80 -9 -88 -13 -88 -52 0 -23 -10 -44 -32 -70 -32 -36 -33 -36 -97 -32 -81 5
-76 8 -461 -247 -363 -240 -418 -271 -551 -312 -99 -30 -117 -39 -189 -98 -44
-35 -120 -92 -170 -125 -49 -33 -97 -71 -106 -85 -10 -15 -35 -30 -69 -40 -45
-13 -68 -29 -140 -100 -47 -47 -91 -85 -98 -85 -7 1 -23 7 -37 15 -37 21 -114
18 -162 -6 -23 -12 -67 -45 -98 -74 -30 -29 -111 -85 -180 -126 -199 -117
-473 -296 -630 -413 -80 -60 -169 -122 -197 -138 l-53 -30 0 -394 c0 -446 -8
-413 80 -337 25 21 65 52 90 67 25 16 70 50 100 76 30 26 87 64 125 84 91 47
118 73 151 145 30 65 77 101 132 101 31 0 211 90 296 149 27 19 75 60 108 93
41 41 75 65 114 79 40 15 78 42 138 99 98 92 132 106 210 90 69 -14 130 0 174
41 33 30 46 66 57 158 6 44 14 60 46 92 21 21 51 41 66 44 16 4 64 15 108 26
44 10 118 24 163 31 64 9 97 19 140 45 32 19 143 78 247 131 205 104 258 144
294 219 22 47 23 48 101 70 95 27 240 95 295 138 56 45 72 52 139 58 68 7 165
52 219 103 19 18 51 62 70 96 51 92 103 143 157 158 25 6 59 18 75 25 17 7 47
21 68 30 29 14 37 23 37 44 1 54 61 92 146 92 49 0 55 3 71 30 10 16 26 29 36
29 11 0 42 18 69 40 51 41 110 62 255 94 40 9 93 16 118 16 26 0 57 7 71 17
14 9 42 16 64 15 29 -1 51 7 90 33 56 37 65 41 75 25 9 -15 91 -12 104 3 6 8
29 19 50 26 22 6 60 26 83 45 24 18 49 31 56 28 7 -2 12 4 12 13 0 13 6 16 26
11 35 -9 64 1 57 20 -4 10 3 14 23 15 28 0 28 1 7 11 -27 13 -30 28 -5 29 10
0 12 3 5 6 -27 10 -10 93 18 93 4 0 25 -28 45 -62 21 -35 165 -237 319 -450
154 -212 339 -470 410 -573 165 -239 291 -394 512 -636 287 -315 538 -558 771
-749 62 -51 108 -112 211 -281 78 -129 160 -252 267 -404 75 -106 164 -254
164 -273 0 -6 6 -15 13 -19 6 -4 35 -41 62 -82 28 -40 106 -148 175 -240 163
-215 214 -251 247 -174 l15 38 27 -31 c14 -18 43 -39 65 -48 48 -20 46 -20 46
4 0 36 25 21 68 -42 58 -85 155 -220 224 -310 52 -68 118 -118 156 -118 6 0
26 -13 44 -29 92 -80 258 -158 258 -121 0 6 11 8 26 4 24 -6 26 -5 19 17 -16
50 -16 53 0 26 9 -15 20 -25 26 -22 13 8 39 73 39 96 0 12 7 19 20 19 28 0 36
27 16 49 -20 22 -21 35 -1 27 8 -3 15 0 16 7 8 146 5 201 -13 219 -11 11 -17
25 -15 31 2 7 0 26 -5 42 -5 17 -9 83 -8 149 1 97 -3 130 -21 185 -12 36 -30
76 -40 89 -19 24 -62 132 -56 138 2 2 27 -5 55 -16 69 -26 219 -29 229 -4 9
25 -26 264 -47 309 -20 45 -214 239 -495 494 -144 131 -188 177 -219 230 -64
110 -273 524 -311 618 -20 48 -111 238 -203 420 -147 293 -165 335 -154 353
18 29 16 46 -24 182 -86 300 -250 692 -339 813 -13 18 -24 50 -27 80 -2 28
-21 87 -42 132 -49 110 -78 192 -77 224 1 14 -6 46 -14 70 -10 28 -12 45 -5
47 16 6 12 31 -16 112 -14 41 -30 102 -35 134 -5 33 -20 83 -33 112 -13 29
-27 67 -31 85 -4 19 -24 90 -45 159 -22 69 -41 148 -43 175 -3 37 -16 72 -50
131 -35 59 -47 92 -47 121 0 29 -6 46 -24 62 -14 13 -22 29 -19 37 9 24 -130
259 -251 424 -132 180 -207 289 -276 405 -40 66 -109 176 -155 245 -77 116
-134 213 -287 495 -33 61 -77 135 -97 165 -21 30 -68 114 -106 185 -37 72 -87
155 -110 185 -45 59 -125 183 -125 194 0 14 -100 183 -120 201 -11 10 -20 28
-20 40 0 12 -11 39 -25 59 -14 20 -25 40 -25 44 0 4 -25 58 -56 121 -31 62
-72 152 -92 200 -34 84 -35 89 -38 246 -10 548 -12 586 -37 690 -34 139 -146
394 -231 524 -57 88 -165 203 -238 252 -80 55 -219 123 -311 153 -115 38 -228
49 -427 44 -180 -6 -248 -17 -541 -92 -61 -16 -94 -19 -113 -13 -17 6 -38 5
-58 -2 -17 -6 -72 -11 -123 -11 -79 0 -99 -4 -139 -25 -26 -14 -44 -21 -41
-15 8 13 -8 13 -38 -1 -18 -8 -53 -4 -163 21 -439 98 -722 147 -1009 175 -142
13 -383 17 -505 8z m3143 -6246 c65 -21 43 -47 -39 -47 -37 0 -44 3 -44 19 0
34 12 53 29 46 9 -4 33 -12 54 -18z"/>
</g>
</svg>
